<svg width="24" height="27" viewBox="0 0 24 27" fill="none" xmlns="http://www.w3.org/2000/svg">
<path d="M17.1376 10.8427L6.37921 4.63867" stroke="#FFC500" stroke-width="2" stroke-linecap="round" stroke-linejoin="round"/>
<path d="M22.5169 18.7309V9.16788C22.5164 8.74863 22.4058 8.33686 22.1959 7.97389C21.9861 7.61091 21.6846 7.3095 21.3215 7.09987L12.9538 2.31835C12.5904 2.10851 12.1781 1.99805 11.7584 1.99805C11.3388 1.99805 10.9265 2.10851 10.563 2.31835L2.19538 7.09987C1.8323 7.3095 1.53073 7.61091 1.32091 7.97389C1.1111 8.33686 1.00043 8.74863 1 9.16788V18.7309C1.00043 19.1502 1.1111 19.5619 1.32091 19.9249C1.53073 20.2879 1.8323 20.5893 2.19538 20.7989L10.563 25.5805C10.9265 25.7903 11.3388 25.9008 11.7584 25.9008C12.1781 25.9008 12.5904 25.7903 12.9538 25.5805L21.3215 20.7989C21.6846 20.5893 21.9861 20.2879 22.1959 19.9249C22.4058 19.5619 22.5164 19.1502 22.5169 18.7309Z" stroke="#FFC500" stroke-width="2" stroke-linecap="round" stroke-linejoin="round"/>
<path d="M1.32275 7.92578L11.7584 13.9625L22.1941 7.92578" stroke="#FFC500" stroke-width="2" stroke-linecap="round" stroke-linejoin="round"/>
<path d="M11.7584 25.9987V13.9492" stroke="#FFC500" stroke-width="2" stroke-linecap="round" stroke-linejoin="round"/>
</svg>
