<svg width="33" height="32" viewBox="0 0 33 32" fill="none" xmlns="http://www.w3.org/2000/svg">
<path d="M16.371 0.848265L0.111328 14.9685L1.77578 16.8851L3.29802 15.5631V28.0406C3.29802 30.1401 5.00611 31.8483 7.1057 31.8483H14.2133V19.4099H18.6556V31.8483H25.6363C27.7358 31.8483 29.444 30.1402 29.444 28.0406V15.5632L30.9662 16.8851L32.6306 14.9685L16.371 0.848265ZM26.9055 28.0406C26.9055 28.7404 26.3361 29.3098 25.6363 29.3098H21.194V16.8715H11.6748V29.3099H7.10564C6.40577 29.3099 5.83643 28.7405 5.83643 28.0407V13.3587L16.371 4.21032L26.9055 13.3587V28.0406Z" fill="#4A006E"/>
</svg>
