<svg width="32" height="26" viewBox="0 0 32 26" fill="none" xmlns="http://www.w3.org/2000/svg">
<path d="M21.0006 1H1V18.3338H21.0006V1Z" stroke="#531BBA" stroke-width="2" stroke-linecap="round" stroke-linejoin="round"/>
<path d="M21.0006 7.66699H26.3341L30.3342 11.6671V18.334H21.0006V7.66699Z" stroke="#531BBA" stroke-width="2" stroke-linecap="round" stroke-linejoin="round"/>
<path d="M7.00018 24.9979C8.84118 24.9979 10.3336 23.5055 10.3336 21.6645C10.3336 19.8235 8.84118 18.3311 7.00018 18.3311C5.15918 18.3311 3.66675 19.8235 3.66675 21.6645C3.66675 23.5055 5.15918 24.9979 7.00018 24.9979Z" stroke="#531BBA" stroke-width="2" stroke-linecap="round" stroke-linejoin="round"/>
<path d="M24.334 24.9979C26.175 24.9979 27.6675 23.5055 27.6675 21.6645C27.6675 19.8235 26.175 18.3311 24.334 18.3311C22.493 18.3311 21.0006 19.8235 21.0006 21.6645C21.0006 23.5055 22.493 24.9979 24.334 24.9979Z" stroke="#531BBA" stroke-width="2" stroke-linecap="round" stroke-linejoin="round"/>
</svg>
